<svg xmlns="http://www.w3.org/2000/svg" width="200" height="193.913" viewBox="0 0 200 193.913"><path d="M139.185.037a44.446,44.446,0,0,0-40,21.7,57.691,57.691,0,0,1,27.011,65.7A44.532,44.532,0,1,0,139.185.03ZM72.52,27.494a44.445,44.445,0,1,0-1.853,88.852,44.441,44.441,0,1,0,1.854-88.862Zm64.822,69.73a66.673,66.673,0,0,0-15.921,2.018,58.537,58.537,0,0,1-17.453,19.717,80.637,80.637,0,0,1,42.544,47.478H204v-2.554a66.669,66.669,0,0,0-66.644-66.658ZM70.671,124.675A66.672,66.672,0,0,0,4,191.364v2.549H137.342v-2.548a66.672,66.672,0,0,0-66.671-66.69Z" transform="translate(-4 -0.001)"/></svg>