<?xml version="1.0" encoding="UTF-8" standalone="no"?>
<svg
   xmlns:dc="http://purl.org/dc/elements/1.1/"
   xmlns:cc="http://creativecommons.org/ns#"
   xmlns:rdf="http://www.w3.org/1999/02/22-rdf-syntax-ns#"
   xmlns:svg="http://www.w3.org/2000/svg"
   xmlns="http://www.w3.org/2000/svg"
   id="svg12"
   version="1.1"
   style="overflow:visible"
   viewBox="-250 -250 500 500"
   height="1000px"
   width="1000px">
  <metadata
     id="metadata18">
    <rdf:RDF>
      <cc:Work
         rdf:about="">
        <dc:format>image/svg+xml</dc:format>
        <dc:type
           rdf:resource="http://purl.org/dc/dcmitype/StillImage" />
      </cc:Work>
    </rdf:RDF>
  </metadata>
  <defs
     id="defs16" />
  <rect
     id="rect2"
     fill-opacity="0"
     fill="rgb(0,0,0)"
     height="500"
     width="500"
     y="-250"
     x="-250" />
  <svg
     id="svg10"
     version="1.1"
     y="-250"
     x="-250"
     viewBox="-250 -250 500 500"
     height="500"
     width="500"
     style="overflow:visible">
    <g
       style="fill:#ffffff;stroke-linejoin:round"
       id="g8">
      <path
         style="fill:#0e0e0e;fill-opacity:1;stroke:#000000;stroke-width:0;stroke-linecap:butt;stroke-linejoin:round;stroke-opacity:0"
         id="path4"
         d="M 46.92444,-46.3218 A 46.924443,46.859024 0 0 1 0,0.53722 46.924443,46.859024 0 0 1 -46.92445,-46.3218 46.924443,46.859024 0 0 1 0,-93.18083 46.924443,46.859024 0 0 1 46.92444,-46.3218 Z" />
      <path
         style="fill:#0e0e0e;fill-opacity:1;stroke:#000000;stroke-width:0;stroke-linecap:butt;stroke-linejoin:round;stroke-opacity:0"
         id="path6"
         d="M 37.05078,9.2863 A 66.929623,66.837992 0 0 1 0,20.51677 66.929623,66.837992 0 0 1 -37.0625,9.28825 c -24.4251,4.76087 -42.74805,26.0934 -42.74805,51.85352 V 93.18083 H 79.81055 V 61.14177 C 79.81055,35.37756 61.4817,14.04266 37.05078,9.2863 Z" />
    </g>
  </svg>
</svg>
